<svg width="370" height="137" viewBox="0 0 370 137" fill="none" xmlns="http://www.w3.org/2000/svg">
<g clip-path="url(#clip0_1_3)">
<path d="M55.9182 85.1572H51.4245V136.08H55.9182V85.1572Z" fill="#00ADB5"/>
<path d="M33.8793 85.1572H29.3857V136.08H33.8793V85.1572Z" fill="#00ADB5"/>
<path d="M39.442 85.1572H34.9483V136.08H39.442V85.1572Z" fill="#00ADB5"/>
<path d="M50.354 85.1572H45.8604V136.08H50.354V85.1572Z" fill="#00ADB5"/>
<path d="M45.0061 85.1572H40.5125V136.08H45.0061V85.1572Z" fill="#00ADB5"/>
<path d="M75.5016 57.7386L78.3154 59.8569L85.3658 56.3476L83.6422 50.1681L79.7503 45.0681L72.6998 48.5774L72.6938 52.0989L73.3954 53.5096L70.5211 54.9399L63.962 36.4739L67.1055 34.909L67.807 36.3197L70.6208 38.438L77.6713 34.9286L75.9491 28.7491L72.0572 23.6491L65.0068 27.1585L64.9992 30.6784L65.7008 32.0891L62.8991 33.4832L56.2433 14.7435L58.6806 13.5309L59.3822 14.9416L62.196 17.0599L69.2464 13.5505L67.5243 7.36947L63.6324 2.26951L56.582 5.77885L56.5759 9.30029L57.2775 10.711L55.1818 11.7225L51.0299 0H34.3344L30.1825 11.721L28.0869 10.6944L28.7884 9.29273L28.7824 5.77432L21.7319 2.268L17.8401 7.36796L16.1179 13.549L23.1683 17.0584L25.9822 14.94L26.6837 13.5294L29.1211 14.742L22.4653 33.4817L19.6635 32.0876L20.3651 30.6769L20.359 27.1555L13.3086 23.6461L9.41672 28.7461L7.69455 34.9256L14.745 38.435L17.5588 36.3167L18.2604 34.906L21.4038 36.4709L14.8448 54.9369L11.9705 53.5066L12.672 52.0959L12.666 48.5744L5.61556 45.0651L1.72216 50.1681L0 56.3476L7.05044 59.8569L9.86427 57.7386L10.5658 56.3279L13.7819 57.9291L9.60874 69.6774L19.8465 82.5898H23.8245V136.08H28.5314V85.1572H27.033V81.9472H33.9655H34.9105H39.4616H40.4066H44.9577H45.9027H50.4538H51.3988H58.484V85.1572H56.9857V136.08H61.4793V82.5898H65.5194L75.7571 69.6774L71.584 57.9291L74.8 56.3295L75.5016 57.7386ZM23.8049 61.1739L21.6004 61.8044L19.3959 59.5999C19.5395 59.671 22.2309 57.0794 22.2309 57.0794L24.7514 59.2839L23.8049 61.1739ZM30.1039 39.1244L27.8994 39.7549L25.6949 37.5504C25.8385 37.6215 28.5299 35.0299 28.5299 35.0299L31.0504 37.2344L30.1039 39.1244ZM36.4044 17.0735L34.1999 17.704L31.9954 15.4995C32.139 15.5705 34.8304 12.979 34.8304 12.979L37.3509 15.1835L36.4044 17.0735ZM52.1548 17.0735L49.9503 17.704L47.7458 15.4995C47.8895 15.5705 50.5808 12.979 50.5808 12.979L53.1013 15.1835L52.1548 17.0735ZM58.4538 39.1244L56.2493 39.7549L54.0448 37.5504C54.1885 37.6215 56.8798 35.0299 56.8798 35.0299L59.4003 37.2344L58.4538 39.1244ZM64.7543 61.1739L62.5498 61.8044L60.3453 59.5999C60.489 59.671 63.1803 57.0794 63.1803 57.0794L65.7008 59.2839L64.7543 61.1739Z" fill="#00ADB5"/>
<path d="M107.557 49.8992C110.567 32.7581 111.796 26 121.012 26C128.016 26 128.999 29.8706 127.77 39.1477H122.056C122.978 32.451 122.609 30.915 120.152 30.915C116.711 30.915 116.158 33.9255 113.332 49.8992C110.199 67.6547 109.769 70.2351 113.209 70.2351C116.465 70.2351 117.08 67.9005 119.353 54.8757H115.298L116.158 49.9607H125.988L125.558 52.3567C122.548 69.5593 121.319 76.3789 112.103 76.3789C102.888 76.3789 104.116 69.5593 107.557 49.8992V49.8992ZM130.596 49.8992L134.712 26.6144H140.856L136.74 49.8992C133.606 67.6547 133.176 70.2351 136.248 70.2351C139.32 70.2351 139.75 67.6547 142.884 49.8992L147 26.6144H153.144L149.027 49.8992C145.587 69.5593 144.358 76.3789 135.142 76.3789C125.927 76.3789 127.155 69.5593 130.596 49.8992V49.8992ZM150.317 75.7645L158.98 26.6144H165.124L156.461 75.7645H150.317ZM166.291 75.7645L173.971 32.1438H167.827L168.81 26.6144H187.241L186.258 32.1438H180.115L172.435 75.7645H166.291ZM182.265 75.7645L186.811 49.9607C189.822 32.8196 191.051 26.0614 200.266 26.0614C209.482 26.0614 208.253 32.8196 205.243 49.9607L200.696 75.7645H194.553L197.072 61.6338H190.928L188.409 75.7645H182.265ZM191.788 56.7188H197.932L199.099 49.9607C201.925 33.9869 202.417 30.9764 199.345 30.9764C196.273 30.9764 195.781 33.9869 192.955 49.9607L191.788 56.7188ZM206.84 75.7645L215.503 26.6144H225.456C231.784 26.6144 233.258 30.4849 231.968 37.9189C230.739 44.6156 229.265 48.4247 227.053 50.2679L226.992 50.6365C228.466 51.1894 228.466 54.077 227.852 61.2652L226.5 75.7645H220.356L222.138 61.2652C222.998 53.9541 222.138 52.4182 220.295 52.4182H217.1L212.984 75.7645H206.84V75.7645ZM217.96 47.5032H221.769C223.92 47.5032 224.903 45.3529 226.254 37.9189C227.053 33.0653 226.439 31.5294 224.596 31.5294H220.786L217.96 47.5032ZM246.344 60.7737H252.55C251.259 68.6992 251.628 70.2351 253.84 70.2351C256.85 70.2351 257.28 67.7162 258.448 61.0195C260.168 51.1894 247.573 53.8313 249.846 40.745C251.198 33.0653 252.488 26 261.704 26C268.523 26 269.691 29.8706 268.462 39.1477H262.318C263.24 32.451 262.81 30.915 260.844 30.915C257.833 30.915 257.219 34.2326 256.052 40.745C254.393 50.2679 267.233 46.8888 264.714 61.0195C263.24 69.6207 262.011 76.3789 252.734 76.3789C245.607 76.3789 244.686 72.1397 246.344 60.7737V60.7737ZM267.049 75.7645L275.712 26.6144H289.842L288.982 31.5294H280.995L278.169 47.5032H284.927L284.067 52.4182H277.309L274.299 69.6207H282.285L281.18 75.7645H267.049ZM285.48 75.7645L294.143 26.6144H300.287L296.846 46.0901L306.43 26.6144H312.574L301.085 49.9607L303.912 75.7645H297.768L295.433 54.2613L291.624 75.7645H285.48V75.7645ZM307.598 75.7645L316.261 26.6144H322.404L313.742 75.7645H307.598ZM319.885 75.7645L328.548 26.6144H338.501C344.829 26.6144 346.304 30.4849 345.013 37.9189C343.785 44.6156 342.31 48.4247 340.098 50.2679L340.037 50.6365C341.511 51.1894 341.511 54.077 340.897 61.2652L339.545 75.7645H333.402L335.183 61.2652C336.043 53.9541 335.183 52.4182 333.34 52.4182H330.145L326.029 75.7645H319.885ZM331.006 47.5032H334.815C336.965 47.5032 337.948 45.3529 339.3 37.9189C340.098 33.0653 339.484 31.5294 337.641 31.5294H333.832L331.006 47.5032ZM348.392 49.8992C351.403 32.7581 353 26 362.216 26C371.431 26 370.571 32.7581 367.561 49.8992C364.12 69.5593 362.523 76.3789 353.307 76.3789C344.092 76.3789 344.952 69.5593 348.392 49.8992ZM354.413 70.2351C357.854 70.2351 358.284 67.6547 361.417 49.8992C364.243 33.9255 364.796 30.915 361.356 30.915C357.915 30.915 357.362 33.9255 354.536 49.8992C351.403 67.6547 350.973 70.2351 354.413 70.2351Z" fill="#EEEEEE"/>
<path d="M105 109.63L108.243 91.23H110.313L110.704 102.73H110.934L115.373 91.23H117.443L114.2 109.63H111.9L113.51 100.43L110.267 109.63H108.887L108.91 100.43L107.3 109.63H105V109.63ZM117.972 99.947C119.099 93.53 119.697 91 123.147 91C126.597 91 126.275 93.53 125.148 99.947C123.86 107.307 123.262 109.86 119.812 109.86C116.362 109.86 116.684 107.307 117.972 99.947V99.947ZM120.226 107.56C121.514 107.56 121.675 106.594 122.848 99.947C123.906 93.967 124.113 92.84 122.825 92.84C121.537 92.84 121.33 93.967 120.272 99.947C119.099 106.594 118.938 107.56 120.226 107.56ZM125.516 109.63L128.759 91.23H131.059L128.23 107.33H131.22L130.806 109.63H125.516ZM132.186 109.63L135.429 91.23H138.879C142.329 91.23 141.892 93.76 140.788 99.947C139.546 107.077 139.086 109.63 135.636 109.63H132.186ZM134.9 107.33H136.05C137.338 107.33 137.499 106.364 138.626 99.947C139.638 94.197 139.845 93.07 138.557 93.07H137.407L134.9 107.33Z" fill="#EEEEEE"/>
</g>
<defs>
<clipPath id="clip0_1_3">
<rect width="369.634" height="136.08" fill="white"/>
</clipPath>
</defs>
</svg>
